<svg width="246" height="220" viewBox="0 0 246 220" fill="none" xmlns="http://www.w3.org/2000/svg">
<g clip-path="url(#clip0_138_513)">
<g filter="url(#filter0_di_138_513)">
<path d="M237.5 46.1824L212.225 8.4498C209.976 5.08008 205.962 3 201.683 3H44.2996C40.0209 3 36.0069 5.08008 33.7573 8.4498L8.43831 46.1824C-4.61818 65.652 6.93858 92.7346 31.3313 95.8547C33.0957 96.0627 34.9042 96.1875 36.6686 96.1875C48.1812 96.1875 58.4147 91.4449 65.4281 84.123C72.4416 91.4449 82.675 96.1875 94.1877 96.1875C105.7 96.1875 115.934 91.4449 122.947 84.123C129.961 91.4449 140.194 96.1875 151.707 96.1875C163.264 96.1875 173.453 91.4449 180.466 84.123C187.524 91.4449 197.713 96.1875 209.226 96.1875C211.034 96.1875 212.799 96.0627 214.563 95.8547C239.044 92.7762 250.645 65.6936 237.544 46.1824H237.5ZM216.372 109.042C216.372 109.042 216.372 109.042 216.328 109.042C213.99 109.334 211.608 109.5 209.182 109.5C203.712 109.5 198.463 108.71 193.567 107.295V162.75H52.4157V107.254C47.4755 108.71 42.1823 109.5 36.7127 109.5C34.2866 109.5 31.8606 109.334 29.5228 109.042H29.4787C27.6702 108.793 25.9058 108.502 24.1855 108.086V162.75V189.375C24.1855 204.06 36.845 216 52.4157 216H193.567C209.138 216 221.797 204.06 221.797 189.375V162.75V108.086C220.033 108.502 218.268 108.834 216.372 109.042Z" fill="#F4623A"/>
</g>
<g filter="url(#filter1_d_138_513)">
<path d="M66.19 159.658C64.606 161.782 63.166 164.122 61.87 166.678C60.574 169.234 59.458 171.862 58.522 174.562C57.622 177.226 56.92 179.872 56.416 182.5C55.948 185.092 55.714 187.522 55.714 189.79C55.714 192.598 56.128 194.632 56.956 195.892C57.784 197.152 59.206 197.782 61.222 197.782C63.562 197.782 65.614 196.972 67.378 195.352C69.142 193.696 70.798 191.428 72.346 188.548C73.354 186.676 74.218 184.624 74.938 182.392C75.658 180.16 76.234 177.874 76.666 175.534C77.134 173.158 77.476 170.782 77.692 168.406C77.908 165.994 78.016 163.69 78.016 161.494C78.016 160.09 77.998 159.064 77.962 158.416C77.926 157.768 77.872 157.246 77.8 156.85C77.908 156.85 78.178 156.886 78.61 156.958C79.042 157.03 79.528 157.12 80.068 157.228C80.644 157.336 81.202 157.48 81.742 157.66C82.318 157.84 82.804 158.038 83.2 158.254C83.02 160.99 82.678 163.816 82.174 166.732C81.706 169.648 81.076 172.528 80.284 175.372C79.492 178.216 78.574 180.952 77.53 183.58C76.486 186.208 75.316 188.566 74.02 190.654C72.112 193.75 69.97 196.162 67.594 197.89C65.218 199.654 62.41 200.536 59.17 200.536C55.858 200.536 53.284 199.564 51.448 197.62C49.612 195.712 48.694 192.796 48.694 188.872C48.694 186.604 48.946 184.048 49.45 181.204C49.954 178.324 50.62 175.408 51.448 172.456C52.312 169.468 53.302 166.57 54.418 163.762C55.534 160.918 56.704 158.38 57.928 156.148C58.54 156.184 59.26 156.31 60.088 156.526C60.916 156.742 61.726 157.03 62.518 157.39C63.31 157.714 64.03 158.092 64.678 158.524C65.362 158.92 65.866 159.298 66.19 159.658ZM131.182 159.604C131.29 160.216 131.362 160.648 131.398 160.9C131.47 161.116 131.506 161.422 131.506 161.818C131.506 163.006 131.236 164.122 130.696 165.166C130.192 166.174 129.49 166.894 128.59 167.326C127.87 166.354 126.988 165.526 125.944 164.842C124.9 164.122 123.748 163.546 122.488 163.114C121.264 162.646 119.986 162.304 118.654 162.088C117.322 161.872 116.026 161.764 114.766 161.764C113.506 161.764 112.318 161.872 111.202 162.088C110.122 162.268 109.15 162.538 108.286 162.898C107.458 163.222 106.792 163.636 106.288 164.14C105.82 164.644 105.586 165.22 105.586 165.868C105.694 166.66 106.18 167.47 107.044 168.298C107.908 169.09 108.97 169.882 110.23 170.674C111.49 171.43 112.876 172.186 114.388 172.942C115.936 173.698 117.448 174.418 118.924 175.102C120.76 175.966 122.344 176.776 123.676 177.532C125.008 178.252 126.106 179.062 126.97 179.962C127.834 180.826 128.482 181.816 128.914 182.932C129.346 184.048 129.562 185.398 129.562 186.982C129.562 188.818 129.256 190.546 128.644 192.166C128.032 193.75 127.132 195.136 125.944 196.324C124.792 197.512 123.388 198.43 121.732 199.078C120.076 199.762 118.222 200.104 116.17 200.104C114.154 200.104 111.976 199.798 109.636 199.186C107.296 198.574 105.1 197.728 103.048 196.648C101.032 195.604 99.3395 194.398 97.9715 193.03C96.6395 191.626 95.9735 190.15 95.9735 188.602C95.9735 187.882 96.1715 186.964 96.5675 185.848C96.9995 184.732 97.7555 183.562 98.8355 182.338C98.9435 183.418 99.5195 184.696 100.564 186.172C101.644 187.648 103.246 189.016 105.37 190.276C107.35 191.428 109.384 192.274 111.472 192.814C113.596 193.318 115.576 193.57 117.412 193.57C119.428 193.57 121.066 193.318 122.326 192.814C123.586 192.31 124.576 191.716 125.296 191.032C126.016 190.312 126.52 189.592 126.808 188.872C127.096 188.152 127.258 187.576 127.294 187.144C127.258 186.424 126.916 185.74 126.268 185.092C125.656 184.408 124.81 183.76 123.73 183.148C122.686 182.5 121.462 181.852 120.058 181.204C118.654 180.556 117.196 179.908 115.684 179.26C113.416 178.252 111.454 177.316 109.798 176.452C108.178 175.552 106.828 174.652 105.748 173.752C104.704 172.816 103.93 171.844 103.426 170.836C102.958 169.828 102.724 168.676 102.724 167.38C102.724 165.364 103.336 163.456 104.56 161.656C105.784 159.856 107.548 158.488 109.852 157.552C111.004 157.048 112.228 156.688 113.524 156.472C114.856 156.256 116.152 156.148 117.412 156.148C119.788 156.148 122.11 156.472 124.378 157.12C126.646 157.768 128.914 158.596 131.182 159.604ZM133.145 195.082C133.145 193.822 133.271 192.346 133.523 190.654C133.775 188.926 134.135 187.09 134.603 185.146C135.107 183.202 135.683 181.168 136.331 179.044C137.015 176.92 137.771 174.796 138.599 172.672C139.319 170.764 140.147 168.838 141.083 166.894C142.055 164.95 143.099 163.042 144.215 161.17C145.331 159.298 146.483 157.516 147.671 155.824C148.895 154.132 150.119 152.584 151.343 151.18C151.919 151.18 152.531 151.252 153.179 151.396C153.863 151.54 154.511 151.738 155.123 151.99C155.771 152.206 156.347 152.476 156.851 152.8C157.391 153.124 157.823 153.448 158.147 153.772C155.447 156.544 153.017 159.352 150.857 162.196C148.697 165.004 146.987 167.65 145.727 170.134C145.043 171.502 144.413 172.78 143.837 173.968C143.297 175.156 142.793 176.344 142.325 177.532C141.857 178.684 141.425 179.854 141.029 181.042C140.669 182.194 140.327 183.418 140.003 184.714C146.915 175.894 152.045 171.484 155.393 171.484C156.329 171.484 157.337 171.79 158.417 172.402C159.497 173.014 160.451 173.842 161.279 174.886C160.163 176.11 159.011 177.586 157.823 179.314C156.635 181.042 155.537 182.788 154.529 184.552C153.557 186.28 152.747 187.9 152.099 189.412C151.487 190.888 151.181 191.986 151.181 192.706C151.181 193.066 151.235 193.318 151.343 193.462C151.451 193.57 151.685 193.624 152.045 193.624C152.585 193.624 153.017 193.552 153.341 193.408C153.665 193.264 153.863 193.192 153.935 193.192C154.115 193.48 154.223 193.678 154.259 193.786C154.295 193.894 154.313 193.984 154.313 194.056C154.313 194.2 154.097 194.416 153.665 194.704C153.233 194.956 152.711 195.226 152.099 195.514C151.523 195.766 150.947 196 150.371 196.216C149.795 196.432 149.363 196.54 149.075 196.54C148.715 196.54 148.355 196.432 147.995 196.216C147.635 196.036 147.311 195.784 147.023 195.46C146.771 195.136 146.555 194.776 146.375 194.38C146.231 193.984 146.159 193.57 146.159 193.138C146.159 192.598 146.303 191.806 146.591 190.762C146.915 189.682 147.347 188.44 147.887 187.036C148.427 185.596 149.075 184.03 149.831 182.338C150.587 180.646 151.397 178.918 152.261 177.154C152.261 177.01 152.189 176.938 152.045 176.938C151.937 176.938 151.649 177.082 151.181 177.37C150.749 177.658 150.335 177.946 149.939 178.234C148.643 179.206 147.329 180.412 145.997 181.852C144.701 183.256 143.423 184.804 142.163 186.496C140.939 188.188 139.769 189.988 138.653 191.896C137.573 193.768 136.637 195.658 135.845 197.566C135.737 197.818 135.575 198.052 135.359 198.268C135.143 198.484 134.963 198.592 134.819 198.592C134.711 198.592 134.549 198.466 134.333 198.214C134.153 197.962 133.973 197.638 133.793 197.242C133.649 196.882 133.505 196.504 133.361 196.108C133.217 195.712 133.145 195.37 133.145 195.082ZM167.467 197.89C165.415 197.674 163.777 196.774 162.553 195.19C161.329 193.606 160.717 191.59 160.717 189.142C160.717 187.702 160.933 186.208 161.365 184.66C161.797 183.112 162.409 181.618 163.201 180.178C163.993 178.702 164.929 177.316 166.009 176.02C167.089 174.724 168.259 173.608 169.519 172.672C171.499 171.196 173.353 170.458 175.081 170.458C176.233 171.07 177.367 172.348 178.483 174.292C178.663 174.292 178.825 174.292 178.969 174.292C179.113 174.256 179.275 174.238 179.455 174.238C181.363 174.238 182.317 175.93 182.317 179.314C182.317 181.582 181.939 183.742 181.183 185.794C180.463 187.81 179.437 189.646 178.105 191.302C176.809 192.958 175.243 194.362 173.407 195.514C171.607 196.63 169.627 197.422 167.467 197.89ZM170.221 180.88C169.609 181.708 169.033 182.608 168.493 183.58C167.953 184.552 167.485 185.542 167.089 186.55C166.693 187.522 166.387 188.476 166.171 189.412C165.955 190.312 165.847 191.122 165.847 191.842C165.847 192.706 165.991 193.534 166.279 194.326C166.567 195.118 166.891 195.568 167.251 195.676C168.871 195.316 170.347 194.65 171.679 193.678C173.047 192.67 174.217 191.428 175.189 189.952C176.197 188.476 176.971 186.802 177.511 184.93C178.087 183.058 178.375 181.06 178.375 178.936C178.375 178 178.321 177.262 178.213 176.722C178.105 176.182 177.925 175.714 177.673 175.318C176.089 175.786 174.667 176.542 173.407 177.586C172.183 178.63 171.121 179.728 170.221 180.88ZM180.989 213.874C180.485 213.73 180.197 213.19 180.125 212.254C179.981 211.786 179.873 211.228 179.801 210.58C179.765 209.932 179.747 209.194 179.747 208.366C179.747 207.61 179.873 206.566 180.125 205.234C180.377 203.938 180.719 202.462 181.151 200.806C181.619 199.15 182.177 197.368 182.825 195.46C183.473 193.516 184.193 191.554 184.985 189.574C185.957 187.09 186.803 184.948 187.523 183.148C188.243 181.312 188.837 179.728 189.305 178.396C189.809 177.064 190.205 175.966 190.493 175.102C190.817 174.238 191.069 173.5 191.249 172.888C191.393 172.456 191.609 171.934 191.897 171.322C192.185 170.71 192.509 170.098 192.869 169.486C193.265 168.838 193.661 168.244 194.057 167.704C194.453 167.128 194.813 166.696 195.137 166.408C196.397 166.588 197.585 166.912 198.701 167.38C199.817 167.848 200.501 168.298 200.753 168.73C200.249 169.198 199.673 169.936 199.025 170.944C198.377 171.916 197.747 172.996 197.135 174.184C196.523 175.336 195.965 176.524 195.461 177.748C194.957 178.972 194.579 180.052 194.327 180.988C194.687 180.376 195.155 179.71 195.731 178.99C196.307 178.27 197.189 177.28 198.377 176.02C199.709 174.652 200.951 173.608 202.103 172.888C203.291 172.132 204.317 171.754 205.181 171.754C206.549 171.754 207.665 172.132 208.529 172.888C209.429 173.644 209.879 174.616 209.879 175.804C209.879 178.396 209.447 180.97 208.583 183.526C207.719 186.046 206.477 188.332 204.857 190.384C204.245 191.176 203.525 191.932 202.697 192.652C201.869 193.372 201.005 194.02 200.105 194.596C199.205 195.136 198.323 195.568 197.459 195.892C196.595 196.216 195.821 196.378 195.137 196.378C194.489 196.378 193.913 196.252 193.409 196C192.941 195.712 192.617 195.37 192.437 194.974C193.841 194.146 195.209 192.994 196.541 191.518C197.873 190.042 199.097 188.35 200.213 186.442C201.365 184.498 202.355 182.41 203.183 180.178C204.047 177.946 204.695 175.678 205.127 173.374C203.759 174.094 202.517 174.886 201.401 175.75C200.321 176.578 199.241 177.676 198.161 179.044C196.865 180.628 195.839 181.906 195.083 182.878C194.327 183.85 193.697 184.678 193.193 185.362C192.725 186.046 192.329 186.694 192.005 187.306C191.717 187.882 191.393 188.602 191.033 189.466C190.529 190.618 189.935 192.148 189.251 194.056C188.603 195.928 187.919 198.034 187.199 200.374C186.515 202.714 185.813 205.198 185.093 207.826C184.409 210.49 183.743 213.136 183.095 215.764C182.699 215.692 182.357 215.404 182.069 214.9C181.781 214.576 181.565 214.342 181.421 214.198C181.313 214.054 181.169 213.946 180.989 213.874Z" fill="url(#paint0_linear_138_513)"/>
</g>
</g>
<defs>
<filter id="filter0_di_138_513" x="-1" y="3" width="248" height="221" filterUnits="userSpaceOnUse" color-interpolation-filters="sRGB">
<feFlood flood-opacity="0" result="BackgroundImageFix"/>
<feColorMatrix in="SourceAlpha" type="matrix" values="0 0 0 0 0 0 0 0 0 0 0 0 0 0 0 0 0 0 127 0" result="hardAlpha"/>
<feOffset dy="4"/>
<feGaussianBlur stdDeviation="2"/>
<feComposite in2="hardAlpha" operator="out"/>
<feColorMatrix type="matrix" values="0 0 0 0 0 0 0 0 0 0 0 0 0 0 0 0 0 0 0.46 0"/>
<feBlend mode="normal" in2="BackgroundImageFix" result="effect1_dropShadow_138_513"/>
<feBlend mode="normal" in="SourceGraphic" in2="effect1_dropShadow_138_513" result="shape"/>
<feColorMatrix in="SourceAlpha" type="matrix" values="0 0 0 0 0 0 0 0 0 0 0 0 0 0 0 0 0 0 127 0" result="hardAlpha"/>
<feOffset dy="4"/>
<feGaussianBlur stdDeviation="2"/>
<feComposite in2="hardAlpha" operator="arithmetic" k2="-1" k3="1"/>
<feColorMatrix type="matrix" values="0 0 0 0 0 0 0 0 0 0 0 0 0 0 0 0 0 0 0.39 0"/>
<feBlend mode="multiply" in2="shape" result="effect2_innerShadow_138_513"/>
</filter>
<filter id="filter1_d_138_513" x="44.694" y="151.18" width="169.185" height="72.584" filterUnits="userSpaceOnUse" color-interpolation-filters="sRGB">
<feFlood flood-opacity="0" result="BackgroundImageFix"/>
<feColorMatrix in="SourceAlpha" type="matrix" values="0 0 0 0 0 0 0 0 0 0 0 0 0 0 0 0 0 0 127 0" result="hardAlpha"/>
<feOffset dy="4"/>
<feGaussianBlur stdDeviation="2"/>
<feComposite in2="hardAlpha" operator="out"/>
<feColorMatrix type="matrix" values="0 0 0 0 0 0 0 0 0 0 0 0 0 0 0 0 0 0 0.4 0"/>
<feBlend mode="normal" in2="BackgroundImageFix" result="effect1_dropShadow_138_513"/>
<feBlend mode="normal" in="SourceGraphic" in2="effect1_dropShadow_138_513" result="shape"/>
</filter>
<linearGradient id="paint0_linear_138_513" x1="123.5" y1="138" x2="123.5" y2="216" gradientUnits="userSpaceOnUse">
<stop stop-color="#999999"/>
<stop offset="1" stop-color="white"/>
</linearGradient>
<clipPath id="clip0_138_513">
<rect width="246" height="220" fill="white"/>
</clipPath>
</defs>
</svg>
