<svg width="225" height="91" viewBox="0 0 225 91" fill="none" xmlns="http://www.w3.org/2000/svg">
<path d="M61.7952 32.1504L55.329 22.4072C54.7535 21.5371 53.7266 21 52.632 21H12.3681C11.2735 21 10.2466 21.5371 9.67104 22.4072L3.1936 32.1504C-0.146673 37.1777 2.80992 44.1709 9.05038 44.9766C9.50176 45.0303 9.96444 45.0625 10.4158 45.0625C13.3611 45.0625 15.9792 43.8379 17.7735 41.9473C19.5677 43.8379 22.1858 45.0625 25.1311 45.0625C28.0764 45.0625 30.6945 43.8379 32.4887 41.9473C34.283 43.8379 36.9011 45.0625 39.8464 45.0625C42.803 45.0625 45.4098 43.8379 47.204 41.9473C49.0096 43.8379 51.6164 45.0625 54.5617 45.0625C55.0243 45.0625 55.4757 45.0303 55.9271 44.9766C62.1901 44.1816 65.158 37.1885 61.8065 32.1504H61.7952ZM56.3898 48.3818C56.3898 48.3818 56.3898 48.3818 56.3785 48.3818C55.7804 48.457 55.171 48.5 54.5504 48.5C53.1511 48.5 51.8082 48.2959 50.5556 47.9307V62.25H14.4445V47.9199C13.1806 48.2959 11.8264 48.5 10.4271 48.5C9.80645 48.5 9.18579 48.457 8.5877 48.3818H8.57642C8.11374 48.3174 7.66236 48.2422 7.22225 48.1348V62.25V69.125C7.22225 72.917 10.461 76 14.4445 76H50.5556C54.5391 76 57.7778 72.917 57.7778 69.125V62.25V48.1348C57.3264 48.2422 56.875 48.3281 56.3898 48.3818Z" fill="#F4623A"/>
<path d="M79.19 28.658C77.606 30.782 76.166 33.122 74.87 35.678C73.574 38.234 72.458 40.862 71.522 43.562C70.622 46.226 69.92 48.872 69.416 51.5C68.948 54.092 68.714 56.522 68.714 58.79C68.714 61.598 69.128 63.632 69.956 64.892C70.784 66.152 72.206 66.782 74.222 66.782C76.562 66.782 78.614 65.972 80.378 64.352C82.142 62.696 83.798 60.428 85.346 57.548C86.354 55.676 87.218 53.624 87.938 51.392C88.658 49.16 89.234 46.874 89.666 44.534C90.134 42.158 90.476 39.782 90.692 37.406C90.908 34.994 91.016 32.69 91.016 30.494C91.016 29.09 90.998 28.064 90.962 27.416C90.926 26.768 90.872 26.246 90.8 25.85C90.908 25.85 91.178 25.886 91.61 25.958C92.042 26.03 92.528 26.12 93.068 26.228C93.644 26.336 94.202 26.48 94.742 26.66C95.318 26.84 95.804 27.038 96.2 27.254C96.02 29.99 95.678 32.816 95.174 35.732C94.706 38.648 94.076 41.528 93.284 44.372C92.492 47.216 91.574 49.952 90.53 52.58C89.486 55.208 88.316 57.566 87.02 59.654C85.112 62.75 82.97 65.162 80.594 66.89C78.218 68.654 75.41 69.536 72.17 69.536C68.858 69.536 66.284 68.564 64.448 66.62C62.612 64.712 61.694 61.796 61.694 57.872C61.694 55.604 61.946 53.048 62.45 50.204C62.954 47.324 63.62 44.408 64.448 41.456C65.312 38.468 66.302 35.57 67.418 32.762C68.534 29.918 69.704 27.38 70.928 25.148C71.54 25.184 72.26 25.31 73.088 25.526C73.916 25.742 74.726 26.03 75.518 26.39C76.31 26.714 77.03 27.092 77.678 27.524C78.362 27.92 78.866 28.298 79.19 28.658ZM144.182 28.604C144.29 29.216 144.362 29.648 144.398 29.9C144.47 30.116 144.506 30.422 144.506 30.818C144.506 32.006 144.236 33.122 143.696 34.166C143.192 35.174 142.49 35.894 141.59 36.326C140.87 35.354 139.988 34.526 138.944 33.842C137.9 33.122 136.748 32.546 135.488 32.114C134.264 31.646 132.986 31.304 131.654 31.088C130.322 30.872 129.026 30.764 127.766 30.764C126.506 30.764 125.318 30.872 124.202 31.088C123.122 31.268 122.15 31.538 121.286 31.898C120.458 32.222 119.792 32.636 119.288 33.14C118.82 33.644 118.586 34.22 118.586 34.868C118.694 35.66 119.18 36.47 120.044 37.298C120.908 38.09 121.97 38.882 123.23 39.674C124.49 40.43 125.876 41.186 127.388 41.942C128.936 42.698 130.448 43.418 131.924 44.102C133.76 44.966 135.344 45.776 136.676 46.532C138.008 47.252 139.106 48.062 139.97 48.962C140.834 49.826 141.482 50.816 141.914 51.932C142.346 53.048 142.562 54.398 142.562 55.982C142.562 57.818 142.256 59.546 141.644 61.166C141.032 62.75 140.132 64.136 138.944 65.324C137.792 66.512 136.388 67.43 134.732 68.078C133.076 68.762 131.222 69.104 129.17 69.104C127.154 69.104 124.976 68.798 122.636 68.186C120.296 67.574 118.1 66.728 116.048 65.648C114.032 64.604 112.34 63.398 110.972 62.03C109.64 60.626 108.974 59.15 108.974 57.602C108.974 56.882 109.172 55.964 109.568 54.848C110 53.732 110.756 52.562 111.836 51.338C111.944 52.418 112.52 53.696 113.564 55.172C114.644 56.648 116.246 58.016 118.37 59.276C120.35 60.428 122.384 61.274 124.472 61.814C126.596 62.318 128.576 62.57 130.412 62.57C132.428 62.57 134.066 62.318 135.326 61.814C136.586 61.31 137.576 60.716 138.296 60.032C139.016 59.312 139.52 58.592 139.808 57.872C140.096 57.152 140.258 56.576 140.294 56.144C140.258 55.424 139.916 54.74 139.268 54.092C138.656 53.408 137.81 52.76 136.73 52.148C135.686 51.5 134.462 50.852 133.058 50.204C131.654 49.556 130.196 48.908 128.684 48.26C126.416 47.252 124.454 46.316 122.798 45.452C121.178 44.552 119.828 43.652 118.748 42.752C117.704 41.816 116.93 40.844 116.426 39.836C115.958 38.828 115.724 37.676 115.724 36.38C115.724 34.364 116.336 32.456 117.56 30.656C118.784 28.856 120.548 27.488 122.852 26.552C124.004 26.048 125.228 25.688 126.524 25.472C127.856 25.256 129.152 25.148 130.412 25.148C132.788 25.148 135.11 25.472 137.378 26.12C139.646 26.768 141.914 27.596 144.182 28.604ZM146.145 64.082C146.145 62.822 146.271 61.346 146.523 59.654C146.775 57.926 147.135 56.09 147.603 54.146C148.107 52.202 148.683 50.168 149.331 48.044C150.015 45.92 150.771 43.796 151.599 41.672C152.319 39.764 153.147 37.838 154.083 35.894C155.055 33.95 156.099 32.042 157.215 30.17C158.331 28.298 159.483 26.516 160.671 24.824C161.895 23.132 163.119 21.584 164.343 20.18C164.919 20.18 165.531 20.252 166.179 20.396C166.863 20.54 167.511 20.738 168.123 20.99C168.771 21.206 169.347 21.476 169.851 21.8C170.391 22.124 170.823 22.448 171.147 22.772C168.447 25.544 166.017 28.352 163.857 31.196C161.697 34.004 159.987 36.65 158.727 39.134C158.043 40.502 157.413 41.78 156.837 42.968C156.297 44.156 155.793 45.344 155.325 46.532C154.857 47.684 154.425 48.854 154.029 50.042C153.669 51.194 153.327 52.418 153.003 53.714C159.915 44.894 165.045 40.484 168.393 40.484C169.329 40.484 170.337 40.79 171.417 41.402C172.497 42.014 173.451 42.842 174.279 43.886C173.163 45.11 172.011 46.586 170.823 48.314C169.635 50.042 168.537 51.788 167.529 53.552C166.557 55.28 165.747 56.9 165.099 58.412C164.487 59.888 164.181 60.986 164.181 61.706C164.181 62.066 164.235 62.318 164.343 62.462C164.451 62.57 164.685 62.624 165.045 62.624C165.585 62.624 166.017 62.552 166.341 62.408C166.665 62.264 166.863 62.192 166.935 62.192C167.115 62.48 167.223 62.678 167.259 62.786C167.295 62.894 167.313 62.984 167.313 63.056C167.313 63.2 167.097 63.416 166.665 63.704C166.233 63.956 165.711 64.226 165.099 64.514C164.523 64.766 163.947 65 163.371 65.216C162.795 65.432 162.363 65.54 162.075 65.54C161.715 65.54 161.355 65.432 160.995 65.216C160.635 65.036 160.311 64.784 160.023 64.46C159.771 64.136 159.555 63.776 159.375 63.38C159.231 62.984 159.159 62.57 159.159 62.138C159.159 61.598 159.303 60.806 159.591 59.762C159.915 58.682 160.347 57.44 160.887 56.036C161.427 54.596 162.075 53.03 162.831 51.338C163.587 49.646 164.397 47.918 165.261 46.154C165.261 46.01 165.189 45.938 165.045 45.938C164.937 45.938 164.649 46.082 164.181 46.37C163.749 46.658 163.335 46.946 162.939 47.234C161.643 48.206 160.329 49.412 158.997 50.852C157.701 52.256 156.423 53.804 155.163 55.496C153.939 57.188 152.769 58.988 151.653 60.896C150.573 62.768 149.637 64.658 148.845 66.566C148.737 66.818 148.575 67.052 148.359 67.268C148.143 67.484 147.963 67.592 147.819 67.592C147.711 67.592 147.549 67.466 147.333 67.214C147.153 66.962 146.973 66.638 146.793 66.242C146.649 65.882 146.505 65.504 146.361 65.108C146.217 64.712 146.145 64.37 146.145 64.082ZM180.467 66.89C178.415 66.674 176.777 65.774 175.553 64.19C174.329 62.606 173.717 60.59 173.717 58.142C173.717 56.702 173.933 55.208 174.365 53.66C174.797 52.112 175.409 50.618 176.201 49.178C176.993 47.702 177.929 46.316 179.009 45.02C180.089 43.724 181.259 42.608 182.519 41.672C184.499 40.196 186.353 39.458 188.081 39.458C189.233 40.07 190.367 41.348 191.483 43.292C191.663 43.292 191.825 43.292 191.969 43.292C192.113 43.256 192.275 43.238 192.455 43.238C194.363 43.238 195.317 44.93 195.317 48.314C195.317 50.582 194.939 52.742 194.183 54.794C193.463 56.81 192.437 58.646 191.105 60.302C189.809 61.958 188.243 63.362 186.407 64.514C184.607 65.63 182.627 66.422 180.467 66.89ZM183.221 49.88C182.609 50.708 182.033 51.608 181.493 52.58C180.953 53.552 180.485 54.542 180.089 55.55C179.693 56.522 179.387 57.476 179.171 58.412C178.955 59.312 178.847 60.122 178.847 60.842C178.847 61.706 178.991 62.534 179.279 63.326C179.567 64.118 179.891 64.568 180.251 64.676C181.871 64.316 183.347 63.65 184.679 62.678C186.047 61.67 187.217 60.428 188.189 58.952C189.197 57.476 189.971 55.802 190.511 53.93C191.087 52.058 191.375 50.06 191.375 47.936C191.375 47 191.321 46.262 191.213 45.722C191.105 45.182 190.925 44.714 190.673 44.318C189.089 44.786 187.667 45.542 186.407 46.586C185.183 47.63 184.121 48.728 183.221 49.88ZM193.989 82.874C193.485 82.73 193.197 82.19 193.125 81.254C192.981 80.786 192.873 80.228 192.801 79.58C192.765 78.932 192.747 78.194 192.747 77.366C192.747 76.61 192.873 75.566 193.125 74.234C193.377 72.938 193.719 71.462 194.151 69.806C194.619 68.15 195.177 66.368 195.825 64.46C196.473 62.516 197.193 60.554 197.985 58.574C198.957 56.09 199.803 53.948 200.523 52.148C201.243 50.312 201.837 48.728 202.305 47.396C202.809 46.064 203.205 44.966 203.493 44.102C203.817 43.238 204.069 42.5 204.249 41.888C204.393 41.456 204.609 40.934 204.897 40.322C205.185 39.71 205.509 39.098 205.869 38.486C206.265 37.838 206.661 37.244 207.057 36.704C207.453 36.128 207.813 35.696 208.137 35.408C209.397 35.588 210.585 35.912 211.701 36.38C212.817 36.848 213.501 37.298 213.753 37.73C213.249 38.198 212.673 38.936 212.025 39.944C211.377 40.916 210.747 41.996 210.135 43.184C209.523 44.336 208.965 45.524 208.461 46.748C207.957 47.972 207.579 49.052 207.327 49.988C207.687 49.376 208.155 48.71 208.731 47.99C209.307 47.27 210.189 46.28 211.377 45.02C212.709 43.652 213.951 42.608 215.103 41.888C216.291 41.132 217.317 40.754 218.181 40.754C219.549 40.754 220.665 41.132 221.529 41.888C222.429 42.644 222.879 43.616 222.879 44.804C222.879 47.396 222.447 49.97 221.583 52.526C220.719 55.046 219.477 57.332 217.857 59.384C217.245 60.176 216.525 60.932 215.697 61.652C214.869 62.372 214.005 63.02 213.105 63.596C212.205 64.136 211.323 64.568 210.459 64.892C209.595 65.216 208.821 65.378 208.137 65.378C207.489 65.378 206.913 65.252 206.409 65C205.941 64.712 205.617 64.37 205.437 63.974C206.841 63.146 208.209 61.994 209.541 60.518C210.873 59.042 212.097 57.35 213.213 55.442C214.365 53.498 215.355 51.41 216.183 49.178C217.047 46.946 217.695 44.678 218.127 42.374C216.759 43.094 215.517 43.886 214.401 44.75C213.321 45.578 212.241 46.676 211.161 48.044C209.865 49.628 208.839 50.906 208.083 51.878C207.327 52.85 206.697 53.678 206.193 54.362C205.725 55.046 205.329 55.694 205.005 56.306C204.717 56.882 204.393 57.602 204.033 58.466C203.529 59.618 202.935 61.148 202.251 63.056C201.603 64.928 200.919 67.034 200.199 69.374C199.515 71.714 198.813 74.198 198.093 76.826C197.409 79.49 196.743 82.136 196.095 84.764C195.699 84.692 195.357 84.404 195.069 83.9C194.781 83.576 194.565 83.342 194.421 83.198C194.313 83.054 194.169 82.946 193.989 82.874Z" fill="#F4623A"/>
</svg>
